<?xml version="1.0" standalone="no"?>
<!DOCTYPE svg PUBLIC "-//W3C//DTD SVG 20010904//EN"
 "http://www.w3.org/TR/2001/REC-SVG-20010904/DTD/svg10.dtd">
<svg version="1.0" xmlns="http://www.w3.org/2000/svg"
 width="179.000000pt" height="179.000000pt" viewBox="0 0 179.000000 179.000000"
 preserveAspectRatio="xMidYMid meet">
<metadata>
Created by potrace 1.14, written by Peter Selinger 2001-2017
</metadata>
<g transform="translate(0.000000,179.000000) scale(0.100000,-0.100000)"
fill="#000000" stroke="none">
<path d="M795 1676 c-237 -139 -549 -319 -572 -330 -20 -10 -23 -19 -23 -76
-1 -85 -1 -747 0 -781 0 -24 16 -36 137 -107 76 -44 161 -92 188 -107 28 -16
82 -48 122 -72 39 -23 76 -43 82 -43 6 0 11 -4 11 -10 0 -5 4 -10 9 -10 5 0
51 -24 102 -54 l92 -55 56 29 c31 15 73 40 94 54 21 14 40 26 42 26 5 0 155
86 412 236 l153 89 1 395 c1 217 0 400 -1 405 -2 6 -2 22 -1 37 1 23 -9 33
-74 72 -42 25 -79 46 -84 46 -5 0 -14 7 -21 15 -7 8 -16 13 -20 10 -5 -3 -11
-1 -15 5 -4 6 -27 22 -53 35 -26 14 -54 30 -62 35 -42 27 -343 200 -348 200
-4 0 -18 9 -32 20 -14 11 -32 19 -40 19 -8 -1 -78 -38 -155 -83z"/>
</g>
</svg>
